<svg xmlns="http://www.w3.org/2000/svg" width="1480" height="875" viewBox="0 0 1480 875" role="img" aria-labelledby="title desc">
  <title id="title">Tesla, Inc. FY2025 — Revenue In, Costs &amp; Profit Out</title>
  <desc id="desc">Revenue USD 94,827M, costs USD 90,472M, Operating profit USD 4,355M. Status clean.</desc>
  <rect width="1480" height="875" fill="#fbf9f4" />
  <rect x="0.5" y="0.5" width="1479" height="874" fill="none" stroke="#e9e3d6" />
  <defs>
    <linearGradient id="grad-total" x1="0" y1="0" x2="0" y2="1">
      <stop offset="0%" stop-color="#243358" />
      <stop offset="100%" stop-color="#0b1224" />
    </linearGradient>
    <linearGradient id="grad-profit" x1="0" y1="0" x2="0" y2="1">
      <stop offset="0%" stop-color="#0f8a5f" />
      <stop offset="100%" stop-color="#046a47" />
    </linearGradient>
    <linearGradient id="grad-cost-total" x1="0" y1="0" x2="0" y2="1">
      <stop offset="0%" stop-color="#9d1b2f" />
      <stop offset="100%" stop-color="#d23a3a" />
    </linearGradient>
    <filter id="shadow" x="-45%" y="-20%" width="190%" height="145%">
      <feDropShadow dx="0" dy="1.2" stdDeviation="1.4" flood-color="#000000" flood-opacity="0.18" />
    </filter>
  </defs>
  <style>
    text { font-family: Helvetica, Arial, sans-serif; letter-spacing: 0; }
    .title { font-family: Georgia, 'Times New Roman', serif; font-size: 29px; font-weight: 700; fill: #15213d; }
    .subtitle { font-size: 14px; fill: #68727c; }
    .rule { stroke: #ded6c7; stroke-width: 1; }
    .header-left { fill: #1d4ed8; font-size: 12px; font-weight: 800; letter-spacing: .06em; }
    .header-right { fill: #9d1b2f; font-size: 12px; font-weight: 800; letter-spacing: .06em; }
    .label { font-size: 13px; font-weight: 800; fill: #1f2933; }
    .metric { font-size: 11.5px; font-weight: 500; fill: #68727c; }
    .leader { fill: none; stroke: #8e958f; stroke-width: .9; opacity: .78; }
    .leader-label { font-size: 11.2px; font-weight: 700; fill: #1f2933; }
    .leader-metric { font-size: 10.8px; font-weight: 600; fill: #68727c; }
    .note { font-size: 13px; font-weight: 700; fill: #68727c; }
    .note-line { fill: none; stroke: #c7bdad; stroke-width: 1; stroke-dasharray: 4 5; }
    .box-label { font-size: 12px; fill: #68727c; font-weight: 700; }
    .box-value { font-size: 12px; fill: #1f2933; font-weight: 800; }
    .source { font-size: 10.5px; fill: #68727c; }
  </style>
  <text x="70" y="54" class="title">Tesla, Inc. FY2025 — Revenue In, Costs &amp; Profit Out</text>
  <text x="70" y="82" class="subtitle">Every dollar of the USD 94.83B: where it came from (left) and where it went (right). Width = USD; % = share of total revenue.</text>
  <line x1="70" y1="122" x2="1410" y2="122" class="rule" />
  <text x="70" y="150" class="header-left">◀ REVENUE · BY LINE OF BUSINESS</text>
  <text x="1410" y="150" class="header-right" text-anchor="end">EXPENSES · BY TYPE ▶</text>
  <g class="ribbons">
    <path d="M303.0,178.0 C445.1,178.0 469.9,180.5 612.0,180.5
             L612.0,717.0 C469.9,717.0 445.1,714.5 303.0,714.5 Z"
          fill="#1d4ed8" opacity="0.4" />
    <path d="M303.0,719.5 C445.1,719.5 469.9,717.0 612.0,717.0
             L612.0,800.5 C469.9,800.5 445.1,803.0 303.0,803.0 Z"
          fill="#2563eb" opacity="0.4" />
    <path d="M630.0,180.5 C764.3,180.5 787.7,180.5 922.0,180.5
             L922.0,209.0 C787.7,209.0 764.3,209.0 630.0,209.0 Z"
          fill="#0f8a5f" opacity="0.42" />
    <path d="M630.0,209.0 C764.3,209.0 787.7,209.0 922.0,209.0
             L922.0,800.5 C787.7,800.5 764.3,800.5 630.0,800.5 Z"
          fill="#d23a3a" opacity="0.34" />
    <path d="M937.0,209.0 C1058.9,209.0 1080.1,187.2 1202.0,187.2
             L1202.0,695.5 C1080.1,695.5 1058.9,717.2 937.0,717.2 Z"
          fill="#9d1b2f" opacity="0.42" />
    <path d="M937.0,717.2 C1058.9,717.2 1080.1,700.5 1202.0,700.5
             L1202.0,742.4 C1080.1,742.4 1058.9,759.1 937.0,759.1 Z"
          fill="#d23a3a" opacity="0.42" />
    <path d="M937.0,759.1 C1058.9,759.1 1080.1,747.4 1202.0,747.4
             L1202.0,785.5 C1080.1,785.5 1058.9,797.3 937.0,797.3 Z"
          fill="#e8761f" opacity="0.42" />
    <path d="M937.0,797.3 C1058.9,797.3 1080.1,790.5 1202.0,790.5
             L1202.0,793.8 C1080.1,793.8 1058.9,800.5 937.0,800.5 Z"
          fill="#f2a93b" opacity="0.42" /></g>
  <g class="nodes">
    <g>
      <title>Automotive — USD 82,056M · 86.5%</title>
      <rect x="288.0" y="178.0" width="15.0" height="536.5" rx="5.5" fill="#1d4ed8" filter="url(#shadow)" />
    </g><text x="276.0" y="196.0" class="label" text-anchor="end"><tspan x="276.0" dy="0">Automotive</tspan><tspan x="276.0" dy="15" class="metric">USD 82,056M · 86.5%</tspan></text>
    <g>
      <title>Energy Generation and Storage — USD 12,771M · 13.5%</title>
      <rect x="288.0" y="719.5" width="15.0" height="83.5" rx="5.5" fill="#2563eb" filter="url(#shadow)" />
    </g><text x="276.0" y="737.5" class="label" text-anchor="end"><tspan x="276.0" dy="0">Energy Generation and</tspan><tspan x="276.0" dy="14">Storage</tspan><tspan x="276.0" dy="15" class="metric">USD 12,771M · 13.5%</tspan></text>
    <g>
      <title>Total Revenue — USD 94,827M · 100.0%</title>
      <rect x="612.0" y="180.5" width="18.0" height="620.0" rx="5.5" fill="url(#grad-total)" filter="url(#shadow)" />
    </g>
    <g>
      <title>Operating profit — USD 4,355M · 4.6%</title>
      <rect x="922.0" y="180.5" width="15.0" height="28.5" rx="5.5" fill="url(#grad-profit)" filter="url(#shadow)" />
    </g><text x="949.0" y="192.5" class="label" text-anchor="start"><tspan x="949.0" dy="0">Operating profit</tspan><tspan x="949.0" dy="15" class="metric">USD 4,355M · 4.6% · kept as profit</tspan></text>
    <g>
      <title>Total costs — USD 90,472M · 95.4%</title>
      <rect x="922.0" y="209.0" width="15.0" height="591.5" rx="5.5" fill="url(#grad-cost-total)" filter="url(#shadow)" />
    </g>
    <g>
      <title>Cost of Revenues — USD 77,733M · 82.0%</title>
      <rect x="1202.0" y="187.2" width="15.0" height="508.2" rx="5.5" fill="#9d1b2f" filter="url(#shadow)" />
      <path d="M1217.0,441.4 L1226.0,402.4" class="leader" />
      <circle cx="1220.0" cy="441.4" r="2.2" fill="#9d1b2f" />
      <text x="1233.0" y="406.4" class="leader-label" text-anchor="start"><tspan x="1233.0" dy="0">Cost of Revenues</tspan><tspan x="1233.0" dy="13" class="leader-metric">USD 77,733M (82.0%)</tspan></text>
    </g>
    <g>
      <title>Research and Development — USD 6,411M · 6.8%</title>
      <rect x="1202.0" y="700.5" width="15.0" height="41.9" rx="5.5" fill="#d23a3a" filter="url(#shadow)" />
      <path d="M1217.0,721.4 L1226.0,682.4" class="leader" />
      <circle cx="1220.0" cy="721.4" r="2.2" fill="#d23a3a" />
      <text x="1233.0" y="686.4" class="leader-label" text-anchor="start"><tspan x="1233.0" dy="0">Research and Development</tspan><tspan x="1233.0" dy="13" class="leader-metric">USD 6,411M (6.8%)</tspan></text>
    </g>
    <g>
      <title>Selling General and Administrative — USD 5,834M · 6.2%</title>
      <rect x="1202.0" y="747.4" width="15.0" height="38.1" rx="5.5" fill="#e8761f" filter="url(#shadow)" />
      <path d="M1217.0,766.5 L1226.0,726.0" class="leader" />
      <circle cx="1220.0" cy="766.5" r="2.2" fill="#e8761f" />
      <text x="1233.0" y="730.0" class="leader-label" text-anchor="start"><tspan x="1233.0" dy="0">Selling General and</tspan><tspan x="1233.0" dy="13">Administrative</tspan><tspan x="1233.0" dy="13" class="leader-metric">USD 5,834M (6.2%)</tspan></text>
    </g>
    <g>
      <title>Restructuring and Other — USD 494M · 0.5%</title>
      <rect x="1202.0" y="790.5" width="15.0" height="3.2" rx="5.5" fill="#f2a93b" filter="url(#shadow)" />
      <path d="M1217.0,792.1 L1226.0,765.0" class="leader" />
      <circle cx="1220.0" cy="792.1" r="2.2" fill="#f2a93b" />
      <text x="1233.0" y="769.0" class="leader-label" text-anchor="start"><tspan x="1233.0" dy="0">Restructuring and Other</tspan><tspan x="1233.0" dy="13" class="leader-metric">USD 494M (0.5%)</tspan></text>
    </g></g>
  <g class="overlays"><text x="642.0" y="195.5" class="label" text-anchor="start"><tspan x="642.0" dy="0">Total Revenue</tspan><tspan x="642.0" dy="15" class="metric">USD 94,827M · 100.0%</tspan></text>
      <g>
        <rect x="689.0" y="457.4" width="172" height="34" rx="7" fill="#fffdf8" stroke="#e5dccb" opacity="0.96" />
        <text x="703.0" y="479.4" class="box-label">Total costs</text>
        <text x="849.0" y="479.4" class="box-value" text-anchor="end">USD 90,472M</text>
      </g></g>
  <text x="70" y="851" class="source">Source: SEC FSNDS, 0001628280-26-003952; figures in USD millions</text>
</svg>